<svg width="32" height="32" viewBox="0 0 32 32" fill="none" xmlns="http://www.w3.org/2000/svg">
<g clip-path="url(#clip0_13_2865)">
<path d="M16 0C12.1899 0 8.69131 1.33161 5.94354 3.5551V13.794H10.6258V13.595C10.6258 12.5368 10.629 11.4777 10.6216 10.4195C10.6203 10.2476 10.6713 10.2017 10.8394 10.2049C11.3982 10.215 11.9569 10.2118 12.5157 10.2067C12.6429 10.2053 12.6917 10.2407 12.6912 10.3749C12.6871 12.1453 12.6852 13.9157 12.6907 15.6857C12.6917 15.869 12.5883 15.8488 12.4766 15.8488H5.94997V21.7993H3.89053V21.598C3.88961 16.2481 3.88915 10.8987 3.88501 5.54838C1.46394 8.3522 0 12.0052 0 16C0 24.8365 7.16349 32 16 32C24.8365 32 32 24.8365 32 16C32 7.16349 24.8365 0 16 0ZM16.9603 10.4172C17.5857 10.4158 18.0889 10.9111 18.0866 11.5259C18.0847 12.1324 17.5843 12.6269 16.9718 12.6273C16.3602 12.6282 15.858 12.1338 15.8562 11.5291C15.8539 10.9221 16.3543 10.4181 16.9603 10.4172ZM18.0815 18.1353C18.064 19.9769 16.6902 21.5259 14.8664 21.7901C12.8594 22.0805 10.9433 20.6473 10.669 18.6389C10.6193 18.2736 10.6161 17.9014 10.601 17.5319C10.5835 17.1088 10.5766 16.6856 10.5651 16.2624C10.5637 16.1994 10.5651 16.136 10.5651 16.0602C10.6396 16.0542 10.6965 16.0459 10.754 16.0459C11.3361 16.045 11.9188 16.0492 12.501 16.0427C12.6452 16.0409 12.693 16.0836 12.6917 16.232C12.6848 16.891 12.6728 17.5499 12.6939 18.2083C12.7211 19.0588 13.4595 19.8046 14.4125 19.7609C15.3608 19.7178 16.0147 18.9991 16.0165 18.047C16.0193 16.5353 16.0161 15.024 16.0156 13.5123C16.0156 13.255 16.0156 13.255 16.2743 13.255C16.8156 13.2545 17.3564 13.2587 17.8977 13.2522C18.0415 13.2504 18.0898 13.294 18.0893 13.442C18.0843 15.0066 18.0967 16.5711 18.0815 18.1353ZM29.9755 21.7303C29.8532 21.8222 29.6143 21.7616 29.4264 21.7616C25.897 21.7625 22.3677 21.762 18.8378 21.762H18.5911C18.5911 21.4193 18.5869 21.0976 18.5957 20.776C18.5966 20.7277 18.6504 20.6753 18.6899 20.6349C19.999 19.2992 21.3177 17.9721 22.6162 16.6263C23.1998 16.0216 23.7392 15.376 24.0292 14.565C24.1758 14.1547 24.2548 13.7342 24.1367 13.3055C23.929 12.551 23.2274 12.1738 22.4949 12.2441C21.6614 12.3241 21.1721 13.0055 21.0586 13.714C21.0374 13.8464 21.0232 13.9796 21.0039 14.1276H18.8989C18.9201 13.6704 18.9798 13.2316 19.1209 12.8084C19.6171 11.3224 20.6496 10.4613 22.1963 10.2513C23.198 10.1153 24.1588 10.2674 24.9868 10.8973C25.7504 11.4781 26.1998 12.2579 26.3165 13.2123C26.4457 14.2718 26.0735 15.212 25.5588 16.1029C25.0708 16.947 24.4211 17.6689 23.7535 18.3728C23.3211 18.8282 22.8869 19.2817 22.4205 19.7706H30.6275C30.4745 20.2678 30.3325 20.7388 30.1841 21.2074C30.1266 21.3903 30.1037 21.6338 29.9755 21.7303Z" fill="#A3A3A3"/>
</g>
<defs>
<clipPath id="clip0_13_2865">
<rect width="32" height="32" fill="white"/>
</clipPath>
</defs>
</svg>
