<svg width="30" height="23" viewBox="0 0 30 23" fill="none" xmlns="http://www.w3.org/2000/svg">
<path fill-rule="evenodd" clip-rule="evenodd" d="M12.1045 0H14.873V0.950703C21.7993 2.5812 22.5903 5.99771 18.5742 11.3834C19.0015 6.04035 18.4766 4.89399 14.873 4.64565V18.1562C14.8804 18.2289 14.8828 18.2992 14.8828 18.3719C14.8828 20.1278 13.0884 21.8687 10.8789 22.2625C8.66699 22.6563 6.875 21.5501 6.875 19.7942C6.875 17.3986 10.0781 15.3191 12.1069 16.0516L12.1045 0ZM18.8232 22.9118H18.7842C18.7842 22.5882 18.667 22.3073 18.4326 22.064C18.1982 21.8232 17.9224 21.7028 17.6074 21.7028V21.6626C17.9224 21.6626 18.1958 21.5422 18.4326 21.3014C18.667 21.0581 18.7842 20.7771 18.7842 20.4561H18.8232C18.8232 20.7796 18.9404 21.0606 19.1748 21.3014C19.4092 21.5422 19.6851 21.6626 20 21.6626V21.7028C19.6851 21.7028 19.4116 21.8232 19.1748 22.064C18.9404 22.3048 18.8232 22.5882 18.8232 22.9118ZM22.5903 18.7156L22.4927 18.708C22.5513 17.9003 22.3096 17.1704 21.7676 16.5207C21.2256 15.871 20.5615 15.5148 19.7729 15.4546L19.7803 15.3542C20.5664 15.4169 21.2769 15.1661 21.9092 14.6092C22.5415 14.0498 22.8882 13.3675 22.9468 12.5623L23.0444 12.5699C22.9858 13.3776 23.2275 14.1075 23.7695 14.7572C24.3115 15.4069 24.9756 15.7631 25.7642 15.8233L25.7568 15.9237C24.9707 15.8609 24.2603 16.1118 23.6279 16.6687C22.9956 17.2255 22.6514 17.9078 22.5903 18.7156ZM26.6919 10.7537L26.5698 10.7688C26.4429 9.73279 25.957 8.8749 25.1074 8.19511C24.2603 7.51532 23.3301 7.2419 22.3193 7.36983L22.3047 7.24441C23.313 7.11648 24.1479 6.61479 24.8096 5.74185C25.4712 4.86891 25.7373 3.91319 25.6128 2.8797L25.7349 2.86465C25.8618 3.90064 26.3477 4.75853 27.1973 5.43832C28.0469 6.11811 28.9746 6.39154 29.9854 6.26361L30 6.38903C28.9917 6.51947 28.1567 7.01865 27.4951 7.89159C26.8335 8.76202 26.5674 9.71774 26.6919 10.7537ZM4.50439 13.5532C3.94287 13.5532 3.48633 13.0841 3.48633 12.5071C3.48633 11.9302 3.94287 11.4611 4.50439 11.4611H8.56445C9.12598 11.4611 9.58252 11.9302 9.58252 12.5071C9.58252 13.0841 9.12598 13.5532 8.56445 13.5532H4.50439ZM2.58057 8.47606C2.01904 8.47606 1.5625 8.00698 1.5625 7.43004C1.5625 6.85309 2.01904 6.38401 2.58057 6.38401H8.56689C9.12842 6.38401 9.58496 6.85309 9.58496 7.43004C9.58496 8.00698 9.12842 8.47606 8.56689 8.47606H0.895996H2.58057ZM1.01807 3.39895C0.456543 3.39895 0 2.92987 0 2.35042C0 1.77348 0.456543 1.3044 1.01807 1.3044H8.56689C9.12842 1.3044 9.58496 1.77348 9.58496 2.35042C9.58496 2.92736 9.12842 3.39644 8.56689 3.39644L1.01807 3.39895Z" fill="white"/>
</svg>
